# xmcd
#
# Track frame offsets: 
#        150
#        24340
#        49404
#        72267
#        100360
#        126923
#        153502
#        182989
#        202210
#        224673
#
# Disc length: 3343 seconds
#
# Revision: 0
# Processed by: cddbd v1.5.2PL0 Copyright (c) Steve Scherf et al.
# Submitted via: ExactAudioCopy v1.0b3
#
DISCID=9f0d0d0a
DTITLE=Truong Vu - Viet Tu KBC
DYEAR=1997
DGENRE=
TTITLE0=Muoi sau trang tron
TTITLE1=Thuong ve quan tro
TTITLE2=Viet tu KBC
TTITLE3=Ngoai o buon
TTITLE4=Muoi nam tai ngo
TTITLE5=Gia tu vu khi
TTITLE6=Mua sau rieng
TTITLE7=Linh xa nha
TTITLE8=Ky niem mot mua he
TTITLE9=Hai ky niem mot chuyen di
EXTD=
EXTT0=
EXTT1=
EXTT2=
EXTT3=
EXTT4=
EXTT5=
EXTT6=
EXTT7=
EXTT8=
EXTT9=
PLAYORDER=
